<svg version="1.0" xmlns="http://www.w3.org/2000/svg"
viewBox="0 0 550.000000 450.000000">

<g transform="translate(0.000000,450.000000) scale(0.100000,-0.100000)"
fill="#000000" stroke="none">
<path d="M3392 4229 c-63 -32 -91 -105 -61 -161 9 -16 7 -24 -10 -42 -49 -52
-66 -157 -35 -222 18 -37 47 -71 82 -96 33 -22 22 -61 -14 -52 -31 8 -46 -23
-20 -41 14 -11 15 -17 5 -39 -7 -14 -20 -26 -30 -26 -22 0 -29 -19 -17 -43 7
-14 3 -27 -16 -52 -14 -19 -26 -41 -26 -49 0 -17 -18 -21 -36 -8 -5 4 -10 23
-10 42 1 31 -2 35 -26 38 -25 3 -28 8 -29 40 0 20 -3 30 -6 22 -3 -8 -12 -31
-20 -50 l-14 -35 -12 25 c-7 14 -22 26 -34 28 -12 2 -34 19 -48 38 -21 28 -24
38 -15 49 15 18 6 45 -15 45 -30 0 -25 -26 20 -110 81 -150 160 -210 276 -210
114 0 243 53 431 176 111 73 140 102 44 44 -84 -51 -200 -110 -217 -110 -8 0
-6 5 6 14 11 8 16 19 12 30 -9 23 -41 16 -45 -9 -5 -23 -29 -53 -54 -66 -13
-7 -26 -4 -44 8 -26 16 -27 16 -45 -6 -10 -13 -27 -21 -38 -19 -18 3 -15 14
34 148 59 163 69 173 128 124 43 -36 88 -54 137 -54 48 0 111 29 132 62 10 15
37 30 72 41 38 12 72 32 102 61 40 38 49 43 90 42 39 -1 50 3 75 32 40 44 39
90 -1 136 -17 18 -41 37 -54 40 -17 4 -28 18 -40 51 -37 111 -144 185 -266
185 -55 0 -78 -6 -126 -30 -51 -26 -61 -28 -70 -15 -12 16 -75 45 -96 45 -7 0
-32 -10 -56 -21z m443 -33 c56 -25 107 -78 130 -132 15 -35 14 -36 -20 -69
-38 -35 -45 -73 -24 -134 10 -27 8 -35 -7 -52 -17 -18 -19 -19 -30 -4 -10 14
-12 12 -18 -9 -6 -23 -50 -56 -74 -56 -5 0 -13 15 -17 33 l-7 32 -7 -30 c-12
-47 -30 -75 -64 -95 -38 -23 -105 -26 -133 -5 -19 14 -19 14 4 30 12 9 29 32
37 52 20 47 19 51 -6 24 -27 -28 -79 -51 -117 -51 -35 0 -44 8 -33 29 5 9 11
30 15 46 6 27 4 26 -19 -12 -14 -24 -30 -43 -34 -43 -19 0 -72 66 -82 103 -15
55 -4 101 33 143 41 47 77 64 135 64 38 0 44 2 34 13 -8 8 -38 11 -87 10 l-74
-1 0 34 c0 39 33 79 73 89 31 8 83 -18 92 -45 8 -24 28 -26 46 -4 14 17 61 43
99 55 47 14 105 9 155 -15z m228 -217 c25 -11 47 -47 47 -76 0 -27 -41 -63
-71 -63 -73 0 -110 96 -51 132 32 21 43 22 75 7z"/>
<path d="M3734 4101 c9 -10 20 -38 25 -62 l8 -44 11 28 c14 33 2 71 -27 86
-30 16 -36 13 -17 -8z"/>
<path d="M3132 4200 c-30 -13 -33 -24 -30 -111 l3 -74 29 85 c16 47 31 91 34
98 5 14 -4 14 -36 2z"/>
<path d="M930 4151 c-76 -16 -153 -74 -182 -137 l-10 -22 -44 19 c-64 29 -156
35 -231 15 -194 -49 -297 -226 -249 -425 l17 -70 -41 -41 c-82 -82 -116 -201
-86 -303 21 -72 96 -156 171 -192 l54 -25 -2 -62 c-2 -99 48 -175 142 -214 36
-15 128 -15 177 1 17 5 23 2 28 -18 10 -42 99 -130 163 -162 76 -37 194 -46
276 -20 129 40 208 138 252 311 2 8 39 5 122 -8 65 -10 123 -20 128 -22 11 -4
6 -6 -80 -33 -79 -24 -95 -53 -72 -125 l16 -49 -32 -19 c-17 -11 -55 -29 -85
-41 -84 -34 -53 -33 37 1 83 32 101 32 101 1 0 -21 -94 -59 -347 -140 -78 -25
-142 -50 -143 -56 0 -6 50 -15 112 -22 263 -28 317 -35 400 -49 86 -16 97 -23
98 -66 0 -3 -26 0 -57 7 -32 8 -87 16 -123 19 l-65 6 80 -28 c44 -16 99 -38
123 -51 35 -18 41 -25 33 -39 -6 -11 -119 -54 -340 -127 -181 -60 -328 -111
-326 -113 3 -3 289 61 615 138 65 16 119 24 124 19 6 -5 11 -30 11 -55 l2 -46
-128 -105 c-130 -105 -161 -135 -92 -88 21 14 46 25 55 25 10 0 18 4 18 10 0
16 93 74 116 72 14 -1 24 5 27 17 2 11 14 24 25 30 18 9 22 5 42 -50 12 -34
18 -65 13 -69 -4 -4 -107 -73 -227 -153 l-219 -146 -33 26 c-133 101 -341 49
-385 -95 l-11 -37 -56 3 c-68 3 -112 -16 -154 -68 -43 -54 -47 -113 -13 -188
l28 -62 -32 -35 c-151 -173 -128 -457 51 -619 213 -193 543 -192 751 3 56 52
91 114 113 203 16 59 15 150 0 189 -5 11 7 21 47 37 75 31 131 82 163 149 24
49 28 67 27 142 -2 85 -2 86 41 151 24 36 80 123 126 193 45 70 88 126 94 124
6 -2 11 -26 11 -53 -1 -62 -63 -235 -84 -231 -8 1 -16 -4 -19 -11 -3 -9 2 -13
14 -10 28 5 133 218 141 284 4 39 2 54 -12 67 -18 19 -12 57 10 57 7 0 23 -12
35 -28 19 -23 21 -35 17 -87 -8 -86 -48 -173 -230 -493 -88 -156 -157 -285
-155 -288 3 -2 93 89 199 203 294 314 487 476 635 534 87 33 200 38 259 9 57
-28 108 -87 148 -173 30 -64 47 -83 47 -53 0 8 9 44 20 80 37 120 106 163 212
132 70 -20 216 -119 317 -214 7 -7 15 -12 16 -10 2 2 -8 44 -22 93 -22 75 -26
113 -27 225 -1 129 0 137 26 186 87 166 303 204 773 139 54 -8 101 -13 102
-11 2 2 -55 43 -127 91 -158 105 -278 218 -305 288 -10 26 -16 49 -14 52 14
14 52 -13 71 -48 20 -41 107 -133 153 -163 21 -14 26 -14 57 2 45 24 151 24
198 0 19 -10 47 -30 63 -44 32 -31 37 -13 8 34 -19 30 -19 33 -1 60 54 88 145
117 235 75 77 -35 119 -108 113 -195 -2 -34 1 -50 8 -49 29 5 141 -20 184 -42
65 -33 144 -122 170 -193 58 -154 25 -316 -87 -427 -147 -148 -418 -162 -578
-30 -24 19 -52 54 -63 77 l-21 43 -1 -36 c0 -23 12 -60 30 -94 29 -54 29 -59
15 -82 -25 -38 -92 -81 -146 -92 -137 -30 -277 57 -309 190 -22 90 8 182 83
252 28 26 35 37 23 37 -20 0 -92 -35 -101 -50 -12 -19 -33 -10 -45 20 -30 72
-5 156 58 195 26 17 31 24 25 45 -3 14 -7 36 -7 50 -1 30 -32 39 -141 39 -212
2 -356 -69 -400 -198 -8 -24 -15 -67 -14 -95 l0 -51 18 62 c10 34 25 73 35 88
l17 25 32 -24 c32 -25 33 -25 45 -5 16 26 6 42 -24 36 -28 -5 -39 16 -18 34
13 11 33 7 112 -19 53 -17 97 -30 99 -28 2 2 -23 25 -57 52 -33 26 -57 51 -53
55 18 17 125 40 211 45 l92 5 0 -38 c-1 -32 -6 -41 -33 -58 -39 -24 -77 -96
-77 -145 0 -54 22 -116 49 -137 22 -18 23 -22 11 -58 -20 -60 -9 -180 23 -241
34 -68 113 -137 174 -155 68 -20 168 -17 233 6 51 19 125 78 146 117 8 15 13
15 69 -4 74 -25 220 -35 296 -19 260 54 421 316 354 576 -43 165 -162 277
-326 308 -57 10 -59 12 -59 41 0 85 -57 172 -135 207 -99 46 -233 7 -290 -83
-23 -37 -34 -46 -50 -42 -11 3 -52 8 -92 11 -55 4 -83 1 -123 -13 -44 -16 -52
-16 -60 -4 -5 9 -5 19 1 26 7 8 6 15 -2 19 -6 4 -15 2 -19 -5 -5 -8 -13 -3
-27 17 -29 40 -55 94 -50 100 3 2 83 10 177 16 95 6 164 14 154 17 -11 4 -83
13 -161 20 -124 11 -143 15 -143 30 0 11 17 25 48 39 l47 21 -37 -2 c-21 -1
-40 1 -44 4 -8 9 75 89 155 150 35 26 60 48 56 48 -13 0 -137 -81 -186 -121
-52 -44 -61 -46 -80 -23 -12 14 -9 20 16 41 63 52 177 124 375 237 113 65 210
122 215 128 7 7 -14 9 -70 4 -546 -42 -638 -43 -662 -10 -23 32 -14 36 70 30
45 -3 127 -2 182 2 l100 8 -100 7 c-208 15 -269 25 -284 47 -7 11 -23 20 -35
20 -12 0 -27 5 -34 12 -16 16 -15 55 1 61 9 3 9 9 -2 30 -18 33 -7 73 21 80
18 5 20 9 10 19 -18 18 -14 56 9 79 11 11 18 27 15 35 -3 8 4 35 15 60 37 88
12 55 -39 -49 -69 -142 -87 -200 -87 -280 0 -66 -1 -68 -25 -65 -23 3 -25 7
-28 65 -5 115 89 330 263 598 13 19 14 26 5 19 -230 -173 -431 -309 -530 -359
-249 -124 -423 -102 -545 69 -55 79 -79 126 -115 233 -16 49 -30 86 -30 83 -2
-48 -25 -192 -41 -248 -71 -266 -203 -310 -428 -143 -67 50 -256 238 -345 344
-27 32 -51 56 -53 53 -2 -2 16 -48 40 -102 78 -173 102 -258 102 -356 0 -105
-14 -129 -97 -171 -86 -44 -207 -47 -482 -12 -36 5 -39 4 -22 -7 97 -64 228
-210 238 -262 5 -29 -52 -42 -72 -17 -12 15 -55 26 -202 50 -103 17 -191 31
-197 31 -6 0 -11 -21 -11 -47 -1 -89 -48 -177 -123 -230 -54 -39 -103 -54
-172 -54 -121 0 -212 57 -266 166 -29 59 -31 69 -27 147 3 46 8 92 12 103 5
14 0 12 -17 -9 -30 -34 -57 -114 -57 -166 0 -31 -4 -39 -22 -44 -79 -21 -167
12 -199 74 -23 42 -24 114 -4 154 21 40 20 43 -29 48 -176 20 -270 242 -165
387 33 46 40 48 77 22 45 -31 104 -53 116 -41 7 7 -6 26 -40 60 -77 77 -99
127 -99 230 0 103 19 145 95 213 112 101 263 104 385 7 27 -21 51 -37 53 -35
2 2 -4 17 -12 34 -26 49 -20 77 25 126 55 59 128 84 191 66 52 -16 123 -85
133 -130 4 -17 9 -31 12 -31 3 0 27 20 54 44 209 188 512 9 435 -257 -16 -56
-17 -57 -54 -58 -20 0 -53 -7 -72 -14 l-35 -13 51 -1 c153 -3 264 -95 264
-221 l0 -51 -32 17 -33 16 27 -29 c27 -28 27 -29 9 -58 -36 -61 -44 -62 -118
-17 -147 89 -136 66 34 -69 l125 -99 62 0 c80 0 156 23 187 56 21 23 24 34 23
102 -2 122 -77 307 -93 227 -2 -13 1 -16 13 -12 11 5 18 -4 26 -31 19 -61 24
-170 10 -187 -7 -8 -10 -21 -7 -28 3 -8 2 -19 -3 -26 -5 -10 -18 -6 -50 15
-23 16 -37 30 -31 32 14 5 14 29 -1 38 -6 4 -16 0 -23 -9 -10 -15 -15 -14 -48
8 -33 23 -35 28 -30 62 3 21 11 44 17 52 8 11 8 15 -1 18 -7 2 -17 21 -24 41
-22 69 -78 132 -136 154 -38 14 -38 12 -18 68 18 50 19 161 2 207 -25 68 -73
120 -140 153 -117 57 -239 49 -330 -22 -21 -17 -42 -26 -46 -22 -4 5 -20 26
-35 48 -44 59 -138 92 -216 77z m1050 -972 c0 -9 -65 -29 -90 -29 -21 1 -71
46 -68 62 2 7 -5 12 -14 12 -23 -2 -23 -1 8 46 l26 39 69 -61 c38 -33 69 -65
69 -69z m1115 -178 c15 -6 6 -11 -40 -19 -83 -14 -108 -25 -154 -68 -48 -42
-57 -24 -14 27 48 56 145 84 208 60z m899 -48 c73 -231 117 -386 110 -393 -5
-5 -25 -11 -44 -15 l-35 -6 -84 213 c-46 117 -85 218 -88 225 -5 12 23 19 89
22 35 1 37 -1 52 -46z m-117 -274 c56 -162 102 -302 102 -311 1 -12 -12 -21
-39 -29 -22 -7 -43 -9 -47 -6 -3 4 -34 89 -69 189 -35 101 -63 179 -63 173 -1
-5 15 -95 34 -199 20 -104 34 -190 33 -191 -2 -2 -20 -7 -40 -13 -27 -7 -40
-7 -46 1 -5 7 -49 89 -97 184 -49 95 -90 171 -92 169 -1 -1 24 -83 57 -182 33
-98 59 -185 58 -193 -3 -12 -95 -48 -103 -39 -7 8 -225 681 -222 684 6 6 167
28 171 23 2 -2 38 -69 80 -149 41 -80 76 -140 76 -135 0 6 -11 69 -25 140 -14
72 -25 137 -25 146 0 13 16 19 68 26 37 6 72 9 77 8 6 -1 56 -134 112 -296z
m-1664 250 c24 -30 15 -34 -24 -10 -19 12 -50 21 -69 22 -29 0 -32 2 -15 9 31
14 88 3 108 -21z m1025 -61 c25 -12 53 -35 67 -57 25 -39 150 -411 160 -476
15 -97 -80 -182 -216 -192 -87 -6 -143 22 -181 93 -33 61 -148 431 -155 499
-5 45 -2 54 22 83 66 78 196 100 303 50z m-1091 2 c25 -11 51 -33 63 -52 30
-50 24 -54 -20 -15 -53 48 -131 71 -224 65 -69 -5 -70 -4 -31 8 62 19 163 17
212 -6z m583 -66 c77 -33 96 -63 164 -274 93 -286 103 -328 87 -379 -26 -88
-136 -157 -266 -168 -115 -10 -190 30 -231 123 -25 56 -140 450 -150 513 -16
101 59 176 201 201 61 10 148 3 195 -16z m-670 -55 c61 -18 141 -98 163 -163
30 -87 20 -156 -31 -208 l-26 -28 34 0 c99 0 187 -92 225 -236 23 -88 7 -146
-59 -209 -28 -27 -74 -61 -101 -75 -99 -48 -380 -159 -387 -152 -10 10 -358
938 -365 973 -5 26 -2 28 45 42 42 13 230 55 312 71 40 7 141 0 190 -15z
m2077 -249 c30 -27 36 -55 21 -87 -18 -39 -59 -42 -93 -9 -61 62 9 156 72 96z
m-1104 -519 c-23 -31 -97 -71 -133 -71 -21 0 -17 5 27 30 28 16 66 47 85 69
29 36 33 38 36 19 2 -11 -5 -33 -15 -47z m33 -88 c-15 -13 -37 -23 -48 -23
-17 0 -13 6 20 30 23 17 43 36 43 43 1 6 4 3 6 -8 4 -12 -4 -27 -21 -42z
m-535 1 c7 -8 29 -24 48 -35 l36 -20 -46 5 c-40 5 -49 2 -70 -20 -25 -27 -94
-66 -139 -79 -16 -4 -6 7 27 29 50 35 94 83 106 119 8 21 21 22 38 1z m-731
-192 c0 -4 -43 -57 -95 -116 -53 -60 -94 -110 -91 -113 2 -2 59 27 127 66 68
39 125 68 127 66 3 -3 -14 -29 -37 -59 -22 -30 -41 -58 -41 -62 0 -3 42 32 93
79 60 55 109 90 140 102 26 10 49 16 51 14 2 -2 -32 -53 -76 -114 -82 -113
-209 -287 -214 -294 -2 -2 -19 10 -39 28 -53 47 -111 73 -153 69 -49 -4 -44
-17 14 -39 104 -40 161 -135 152 -253 -6 -73 -23 -109 -74 -159 -30 -29 -122
-75 -129 -64 -29 46 -57 74 -99 97 -39 22 -57 40 -70 70 -10 22 -27 45 -38 51
-19 10 -20 9 -13 -7 5 -11 11 -44 13 -74 3 -45 -1 -61 -20 -89 -42 -62 -152
-77 -213 -29 -34 27 -41 18 -13 -17 27 -34 91 -64 139 -65 70 0 122 40 166
128 1 2 13 -4 28 -14 78 -51 106 -187 64 -316 -19 -62 -32 -82 -83 -134 -72
-72 -127 -100 -236 -121 -73 -15 -87 -15 -162 0 -162 32 -268 110 -331 245
-27 58 -31 78 -31 152 0 66 4 96 22 133 29 66 72 117 121 147 22 14 41 28 41
31 0 4 -12 10 -27 14 -61 15 -102 67 -103 129 0 30 7 45 34 72 29 29 41 34 80
34 56 0 95 -18 131 -62 18 -21 25 -26 20 -13 -44 132 27 254 154 263 68 5 125
-19 165 -70 l25 -32 117 79 c64 44 171 119 238 167 132 95 126 91 126 80z"/>
<path d="M1905 3201 c-8 -15 3 -31 21 -31 9 0 14 7 12 17 -4 20 -24 28 -33 14z"/>
<path d="M3103 2763 c-7 -2 -13 -12 -13 -20 0 -28 132 -437 145 -452 16 -16
60 -8 68 13 3 8 -26 111 -64 230 -74 230 -86 250 -136 229z"/>
<path d="M2555 2660 c-6 -20 128 -484 147 -507 14 -17 50 -16 73 1 17 12 18
19 8 62 -23 104 -133 448 -145 455 -26 17 -76 10 -83 -11z"/>
<path d="M1825 2589 c-6 -8 68 -222 82 -238 2 -3 23 5 48 17 55 27 63 52 39
124 -25 75 -61 108 -118 108 -24 0 -48 -5 -51 -11z"/>
<path d="M1993 2183 c-7 -2 -13 -10 -13 -16 0 -15 81 -229 90 -240 12 -13 88
30 95 54 13 41 -28 169 -63 195 -17 13 -85 17 -109 7z"/>
<path d="M1480 1350 c-12 -8 -9 -10 13 -10 15 0 27 5 27 10 0 13 -20 13 -40 0z"/>
<path d="M2165 4108 c-24 -68 -43 -144 -37 -153 4 -7 55 -63 114 -125 101
-106 106 -110 96 -74 -7 22 -17 46 -23 54 -6 8 -40 81 -75 163 -34 81 -64 147
-67 147 -2 0 -6 -6 -8 -12z"/>
<path d="M2730 4030 c0 -5 5 -10 10 -10 6 0 10 5 10 10 0 6 -4 10 -10 10 -5 0
-10 -4 -10 -10z"/>
<path d="M3205 4030 c-3 -5 -1 -10 4 -10 6 0 11 5 11 10 0 6 -2 10 -4 10 -3 0
-8 -4 -11 -10z"/>
<path d="M2846 4011 c-4 -7 -5 -15 -2 -18 9 -9 19 4 14 18 -4 11 -6 11 -12 0z"/>
<path d="M2480 3980 c0 -5 5 -10 10 -10 6 0 10 5 10 10 0 6 -4 10 -10 10 -5 0
-10 -4 -10 -10z"/>
<path d="M2950 3975 c0 -8 5 -15 10 -15 6 0 10 7 10 15 0 8 -4 15 -10 15 -5 0
-10 -7 -10 -15z"/>
<path d="M2590 3950 c0 -5 5 -10 10 -10 6 0 10 5 10 10 0 6 -4 10 -10 10 -5 0
-10 -4 -10 -10z"/>
<path d="M3060 3945 c0 -9 5 -15 11 -13 6 2 11 8 11 13 0 5 -5 11 -11 13 -6 2
-11 -4 -11 -13z"/>
<path d="M2700 3925 c0 -8 5 -15 10 -15 6 0 10 7 10 15 0 8 -4 15 -10 15 -5 0
-10 -7 -10 -15z"/>
<path d="M3170 3915 c0 -9 5 -15 11 -13 6 2 11 8 11 13 0 5 -5 11 -11 13 -6 2
-11 -4 -11 -13z"/>
<path d="M2340 3900 c0 -5 5 -10 10 -10 6 0 10 5 10 10 0 6 -4 10 -10 10 -5 0
-10 -4 -10 -10z"/>
<path d="M2810 3895 c0 -9 5 -15 11 -13 6 2 11 8 11 13 0 5 -5 11 -11 13 -6 2
-11 -4 -11 -13z"/>
<path d="M2450 3875 c0 -8 5 -15 10 -15 6 0 10 7 10 15 0 8 -4 15 -10 15 -5 0
-10 -7 -10 -15z"/>
<path d="M2920 3865 c0 -8 7 -15 15 -15 8 0 15 7 15 15 0 8 -7 15 -15 15 -8 0
-15 -7 -15 -15z"/>
<path d="M2560 3845 c0 -9 5 -15 11 -13 6 2 11 8 11 13 0 5 -5 11 -11 13 -6 2
-11 -4 -11 -13z"/>
<path d="M3027 3844 c-9 -10 2 -24 19 -24 8 0 14 7 14 15 0 15 -21 21 -33 9z"/>
<path d="M2200 3820 c0 -5 5 -10 10 -10 6 0 10 5 10 10 0 6 -4 10 -10 10 -5 0
-10 -4 -10 -10z"/>
<path d="M2665 3820 c-3 -6 1 -13 10 -16 19 -8 30 0 20 15 -8 14 -22 14 -30 1z"/>
<path d="M3137 3814 c-9 -10 2 -24 19 -24 8 0 14 7 14 15 0 15 -21 21 -33 9z"/>
<path d="M2774 3789 c-7 -12 15 -31 28 -23 4 3 8 12 8 20 0 17 -26 19 -36 3z"/>
<path d="M3253 3793 c-18 -6 -16 -30 2 -37 9 -3 18 1 22 10 7 18 -7 33 -24 27z"/>
<path d="M2415 3770 c-3 -6 1 -13 10 -16 19 -8 30 0 20 15 -8 14 -22 14 -30 1z"/>
<path d="M2894 3754 c3 -9 6 -18 6 -20 0 -3 5 -2 10 1 16 10 12 35 -6 35 -11
0 -14 -5 -10 -16z"/>
<path d="M2060 3740 c0 -5 5 -10 10 -10 6 0 10 5 10 10 0 6 -4 10 -10 10 -5 0
-10 -4 -10 -10z"/>
<path d="M2524 3739 c-8 -14 11 -33 25 -25 6 4 11 14 11 22 0 16 -26 19 -36 3z"/>
<path d="M2993 3734 c-9 -23 13 -40 32 -24 12 10 13 16 4 26 -15 18 -28 18
-36 -2z"/>
<path d="M2170 3710 c0 -5 5 -10 10 -10 6 0 10 5 10 10 0 6 -4 10 -10 10 -5 0
-10 -4 -10 -10z"/>
<path d="M2632 3703 c2 -10 10 -18 18 -18 8 0 16 8 18 18 2 12 -3 17 -18 17
-15 0 -20 -5 -18 -17z"/>
<path d="M3104 3705 c-4 -9 -2 -21 4 -27 15 -15 44 -1 40 19 -4 23 -36 29 -44
8z"/>
<path d="M2274 3689 c-10 -17 13 -36 27 -22 12 12 4 33 -11 33 -5 0 -12 -5
-16 -11z"/>
<path d="M2744 3685 c-3 -8 -3 -19 1 -25 11 -17 35 -11 35 9 0 23 -29 36 -36
16z"/>
<path d="M3214 3675 c-4 -9 -2 -21 4 -27 15 -15 44 -1 40 19 -4 23 -36 29 -44
8z"/>
<path d="M1920 3660 c0 -5 5 -10 10 -10 6 0 10 5 10 10 0 6 -4 10 -10 10 -5 0
-10 -4 -10 -10z"/>
<path d="M2384 3659 c-10 -17 13 -36 27 -22 12 12 4 33 -11 33 -5 0 -12 -5
-16 -11z"/>
<path d="M2492 3623 c5 -26 38 -29 38 -4 0 15 -6 21 -21 21 -14 0 -19 -5 -17
-17z"/>
<path d="M3802 3629 c2 -6 8 -10 13 -10 5 0 11 4 13 10 2 6 -4 11 -13 11 -9 0
-15 -5 -13 -11z"/>
<path d="M3433 3614 c-5 -14 11 -33 28 -34 10 0 20 31 13 41 -9 15 -34 10 -41
-7z"/>
<path d="M2604 3605 c-7 -18 3 -35 21 -35 18 0 26 25 12 39 -15 15 -27 14 -33
-4z"/>
<path d="M3067 3596 c-4 -9 1 -22 9 -30 20 -20 46 -9 42 18 -4 25 -43 34 -51
12z"/>
<path d="M3546 3585 c-6 -17 17 -31 34 -20 8 5 8 11 -1 21 -15 18 -25 18 -33
-1z"/>
<path d="M2245 3580 c-3 -6 -12 -7 -18 -4 -34 19 129 -136 198 -188 86 -66
151 -98 194 -98 44 0 93 40 122 99 24 47 42 101 34 101 -2 0 -14 -19 -28 -43
-41 -69 -148 -114 -160 -67 -6 22 -43 28 -49 8 -6 -18 -55 -1 -61 22 -3 13
-13 20 -29 20 -13 0 -58 25 -101 56 -58 41 -76 60 -74 76 2 23 -17 36 -28 18z"/>
<path d="M2717 3584 c-4 -4 -7 -16 -7 -26 0 -14 6 -19 23 -16 14 2 22 10 22
23 0 20 -25 32 -38 19z"/>
<path d="M3179 3574 c-15 -18 -2 -47 24 -52 25 -5 40 33 21 52 -19 20 -28 20
-45 0z"/>
<path d="M3666 3563 c-12 -12 -6 -33 9 -33 8 0 15 6 15 14 0 17 -14 28 -24 19z"/>
<path d="M1890 3550 c0 -5 5 -10 10 -10 6 0 10 5 10 10 0 6 -4 10 -10 10 -5 0
-10 -4 -10 -10z"/>
<path d="M2352 3543 c5 -26 38 -29 38 -4 0 15 -6 21 -21 21 -14 0 -19 -5 -17
-17z"/>
<path d="M2460 3510 c0 -16 5 -21 23 -18 12 2 22 10 22 18 0 8 -10 16 -22 18
-18 3 -23 -2 -23 -18z"/>
<path d="M3404 3505 c-4 -9 -2 -21 4 -27 15 -15 44 -1 40 19 -4 23 -36 29 -44
8z"/>
<path d="M2577 3504 c-4 -4 -7 -16 -7 -26 0 -14 6 -19 23 -16 14 2 22 10 22
23 0 20 -25 32 -38 19z"/>
<path d="M2676 3464 c-9 -22 17 -49 39 -40 10 3 15 15 13 28 -4 29 -42 37 -52
12z"/>
<path d="M4105 3430 c-3 -5 1 -10 10 -10 9 0 13 5 10 10 -3 6 -8 10 -10 10 -2
0 -7 -4 -10 -10z"/>
<path d="M1965 3411 c-3 -5 -1 -12 5 -16 12 -7 30 2 30 16 0 12 -27 12 -35 0z"/>
<path d="M450 3386 c0 -2 7 -6 15 -10 8 -3 15 -1 15 4 0 6 -7 10 -15 10 -8 0
-15 -2 -15 -4z"/>
<path d="M1525 3370 c3 -5 8 -10 11 -10 2 0 4 5 4 10 0 6 -5 10 -11 10 -5 0
-7 -4 -4 -10z"/>
<path d="M4072 3318 c6 -18 28 -21 28 -4 0 9 -7 16 -16 16 -9 0 -14 -5 -12
-12z"/>
<path d="M4190 3290 c0 -5 5 -10 11 -10 5 0 7 5 4 10 -3 6 -8 10 -11 10 -2 0
-4 -4 -4 -10z"/>
<path d="M4042 3208 c5 -15 28 -18 29 -3 0 6 -7 12 -17 13 -10 3 -15 -1 -12
-10z"/>
<path d="M4475 3176 l-70 -35 70 1 c39 0 81 3 94 7 l24 6 -24 28 -24 28 -70
-35z"/>
<path d="M1620 3196 c0 -11 81 -57 95 -54 10 2 -5 14 -39 30 -31 15 -56 26
-56 24z"/>
<path d="M4157 3184 c-8 -8 1 -24 14 -24 5 0 9 7 9 15 0 15 -12 20 -23 9z"/>
<path d="M4270 3150 c0 -5 5 -10 11 -10 5 0 7 5 4 10 -3 6 -8 10 -11 10 -2 0
-4 -4 -4 -10z"/>
<path d="M4013 3104 c-7 -19 2 -28 22 -21 19 8 19 23 0 31 -9 3 -18 -1 -22
-10z"/>
<path d="M4122 3068 c6 -18 28 -21 28 -4 0 9 -7 16 -16 16 -9 0 -14 -5 -12
-12z"/>
<path d="M4240 3035 c0 -8 5 -15 10 -15 6 0 10 7 10 15 0 8 -4 15 -10 15 -5 0
-10 -7 -10 -15z"/>
<path d="M4350 3010 c0 -5 5 -10 10 -10 6 0 10 5 10 10 0 6 -4 10 -10 10 -5 0
-10 -4 -10 -10z"/>
<path d="M1440 2997 c12 -12 202 -88 208 -82 3 3 -5 16 -17 29 -16 17 -42 27
-89 36 -37 6 -76 13 -87 17 -11 3 -18 3 -15 0z"/>
<path d="M1435 2720 c3 -5 8 -10 11 -10 2 0 4 5 4 10 0 6 -5 10 -11 10 -5 0
-7 -4 -4 -10z"/>
<path d="M4480 2620 c0 -5 5 -10 10 -10 6 0 10 5 10 10 0 6 -4 10 -10 10 -5 0
-10 -4 -10 -10z"/>
<path d="M1400 2610 c0 -5 5 -10 10 -10 6 0 10 5 10 10 0 6 -4 10 -10 10 -5 0
-10 -4 -10 -10z"/>
<path d="M4340 2541 c0 -6 5 -13 10 -16 6 -3 10 1 10 9 0 9 -4 16 -10 16 -5 0
-10 -4 -10 -9z"/>
<path d="M4450 2510 c0 -5 5 -10 10 -10 6 0 10 5 10 10 0 6 -4 10 -10 10 -5 0
-10 -4 -10 -10z"/>
<path d="M4310 2425 c0 -9 5 -15 11 -13 6 2 11 8 11 13 0 5 -5 11 -11 13 -6 2
-11 -4 -11 -13z"/>
<path d="M4425 2400 c-3 -5 -1 -10 4 -10 6 0 11 5 11 10 0 6 -2 10 -4 10 -3 0
-8 -4 -11 -10z"/>
<path d="M4280 2315 c0 -9 5 -15 11 -13 6 2 11 8 11 13 0 5 -5 11 -11 13 -6 2
-11 -4 -11 -13z"/>
<path d="M4395 2290 c-3 -5 -1 -10 4 -10 6 0 11 5 11 10 0 6 -2 10 -4 10 -3 0
-8 -4 -11 -10z"/>
<path d="M1390 2140 c0 -5 4 -10 9 -10 6 0 13 5 16 10 3 6 -1 10 -9 10 -9 0
-16 -4 -16 -10z"/>
<path d="M1506 2123 c-11 -11 -6 -23 9 -23 8 0 15 4 15 9 0 13 -16 22 -24 14z"/>
<path d="M645 2080 c22 -23 49 -43 61 -46 19 -5 200 50 217 66 8 7 -159 20
-262 20 l-55 0 39 -40z"/>
<path d="M1370 2029 c0 -5 5 -7 10 -4 6 3 10 8 10 11 0 2 -4 4 -10 4 -5 0 -10
-5 -10 -11z"/>
<path d="M1580 1975 c0 -8 7 -15 15 -15 8 0 15 7 15 15 0 8 -7 15 -15 15 -8 0
-15 -7 -15 -15z"/>
<path d="M1445 1890 c3 -5 10 -10 16 -10 5 0 9 5 9 10 0 6 -7 10 -16 10 -8 0
-12 -4 -9 -10z"/>
<path d="M1556 1873 c-11 -11 -6 -23 9 -23 8 0 15 4 15 9 0 13 -16 22 -24 14z"/>
<path d="M3905 1830 c-8 -14 3 -30 21 -30 8 0 14 9 14 20 0 21 -24 28 -35 10z"/>
<path d="M4020 1796 c0 -9 7 -16 16 -16 17 0 14 22 -4 28 -7 2 -12 -3 -12 -12z"/>
<path d="M1636 1733 c-11 -11 -6 -23 9 -23 8 0 15 4 15 9 0 13 -16 22 -24 14z"/>
<path d="M3876 1722 c-8 -13 11 -35 23 -28 16 10 14 36 -3 36 -8 0 -17 -4 -20
-8z"/>
<path d="M3990 1686 c0 -9 7 -16 16 -16 17 0 14 22 -4 28 -7 2 -12 -3 -12 -12z"/>
<path d="M3735 1640 c-8 -13 3 -30 20 -30 14 0 27 24 18 34 -10 9 -31 7 -38
-4z"/>
<path d="M3852 1604 c4 -21 22 -23 26 -1 2 10 -3 17 -13 17 -10 0 -15 -6 -13
-16z"/>
<path d="M3966 1583 c-11 -11 -6 -23 9 -23 8 0 15 4 15 9 0 13 -16 22 -24 14z"/>
<path d="M3707 1534 c-9 -10 4 -34 19 -34 8 0 14 9 14 20 0 19 -19 27 -33 14z"/>
<path d="M2042 1493 c2 -10 10 -18 18 -18 8 0 16 8 18 18 2 12 -3 17 -18 17
-15 0 -20 -5 -18 -17z"/>
<path d="M3822 1494 c4 -21 22 -23 26 -1 2 10 -3 17 -13 17 -10 0 -15 -6 -13
-16z"/>
<path d="M2678 1466 c-31 -13 -77 -35 -102 -50 -63 -37 -195 -138 -231 -176
-21 -23 -5 -14 52 28 121 88 272 167 289 149 6 -6 -24 -285 -33 -307 -4 -8 -5
-36 -4 -62 2 -38 0 -48 -13 -48 -9 0 -16 -7 -16 -15 0 -8 5 -15 10 -15 7 0 9
-25 6 -67 -3 -38 -3 -61 0 -53 8 25 105 442 113 485 9 56 41 105 68 105 18 0
22 -6 21 -32 0 -18 3 -46 7 -61 6 -24 4 -29 -14 -34 -29 -7 -30 -53 -1 -53 18
0 20 -7 20 -72 0 -39 2 -69 5 -67 2 3 12 70 21 150 9 79 17 145 19 147 8 9 55
-24 51 -35 -8 -21 4 -43 24 -43 33 0 32 19 -2 61 -73 91 -173 113 -290 65z"/>
<path d="M3936 1473 c-11 -11 -6 -23 9 -23 8 0 15 4 15 9 0 13 -16 22 -24 14z"/>
<path d="M3250 1463 c-20 -8 -50 -34 -61 -54 -13 -24 41 -22 64 2 19 21 51 23
110 10 20 -5 37 -7 37 -5 0 2 -17 12 -37 23 -44 22 -92 32 -113 24z"/>
<path d="M4045 1430 c3 -5 10 -10 16 -10 5 0 9 5 9 10 0 6 -7 10 -16 10 -8 0
-12 -4 -9 -10z"/>
<path d="M3680 1410 c0 -13 5 -20 13 -17 6 2 12 10 12 17 0 7 -6 15 -12 18 -8
2 -13 -5 -13 -18z"/>
<path d="M3313 1394 c-8 -22 18 -37 36 -20 7 8 10 19 7 25 -10 16 -36 13 -43
-5z"/>
<path d="M2017 1394 c-13 -13 -7 -24 14 -24 11 0 19 5 17 12 -5 14 -22 21 -31
12z"/>
<path d="M3796 1393 c-11 -11 -6 -23 9 -23 8 0 15 4 15 9 0 13 -16 22 -24 14z"/>
<path d="M2592 1368 c-25 -25 0 -64 32 -52 21 8 21 50 0 58 -20 8 -18 8 -32
-6z"/>
<path d="M3425 1370 c-4 -7 -3 -16 3 -22 14 -14 45 -2 40 15 -6 16 -34 21 -43
7z"/>
<path d="M3900 1350 c0 -5 7 -10 15 -10 8 0 15 5 15 10 0 6 -7 10 -15 10 -8 0
-15 -4 -15 -10z"/>
<path d="M3173 1314 c-8 -22 18 -37 36 -20 7 8 10 19 7 25 -10 16 -36 13 -43
-5z"/>
<path d="M3540 1320 c0 -5 7 -10 16 -10 8 0 12 5 9 10 -3 6 -10 10 -16 10 -5
0 -9 -4 -9 -10z"/>
<path d="M4020 1320 c0 -5 5 -10 10 -10 6 0 10 5 10 10 0 6 -4 10 -10 10 -5 0
-10 -4 -10 -10z"/>
<path d="M3284 1289 c-9 -15 11 -33 30 -26 9 4 13 13 10 22 -7 17 -30 20 -40
4z"/>
<path d="M2454 1275 c-7 -18 3 -35 21 -35 15 0 24 19 18 38 -6 17 -32 15 -39
-3z"/>
<path d="M2924 1265 c-4 -9 -2 -21 4 -27 15 -15 44 -1 40 19 -4 23 -36 29 -44
8z"/>
<path d="M3760 1270 c0 -5 7 -10 15 -10 8 0 15 5 15 10 0 6 -7 10 -15 10 -8 0
-15 -4 -15 -10z"/>
<path d="M3406 1263 c-12 -12 -6 -33 9 -33 8 0 15 6 15 14 0 17 -14 28 -24 19z"/>
<path d="M2560 1235 c0 -22 4 -26 23 -23 14 2 22 10 22 23 0 13 -8 21 -22 23
-19 3 -23 -1 -23 -23z"/>
<path d="M3033 1234 c-8 -22 18 -37 36 -20 7 8 10 19 7 25 -10 16 -36 13 -43
-5z"/>
<path d="M3875 1240 c3 -5 10 -10 16 -10 5 0 9 5 9 10 0 6 -7 10 -16 10 -8 0
-12 -4 -9 -10z"/>
<path d="M3515 1230 c-7 -12 2 -30 16 -30 12 0 12 27 0 35 -5 3 -12 1 -16 -5z"/>
<path d="M3145 1210 c-8 -14 3 -30 21 -30 8 0 14 9 14 20 0 21 -24 28 -35 10z"/>
<path d="M2316 1191 c-7 -11 18 -33 27 -24 4 3 7 12 7 20 0 15 -26 18 -34 4z"/>
<path d="M2783 1184 c-3 -8 -1 -20 5 -26 15 -15 43 8 35 28 -7 19 -32 18 -40
-2z"/>
<path d="M3620 1190 c0 -5 7 -10 15 -10 8 0 15 5 15 10 0 6 -7 10 -15 10 -8 0
-15 -4 -15 -10z"/>
<path d="M3266 1183 c-12 -12 -6 -33 9 -33 8 0 15 6 15 14 0 17 -14 28 -24 19z"/>
<path d="M1960 1160 c0 -5 5 -10 10 -10 6 0 10 5 10 10 0 6 -4 10 -10 10 -5 0
-10 -4 -10 -10z"/>
<path d="M2424 1159 c-7 -12 15 -31 28 -23 4 3 8 12 8 20 0 17 -26 19 -36 3z"/>
<path d="M2895 1160 c-10 -16 16 -43 28 -31 11 11 2 41 -12 41 -5 0 -13 -5
-16 -10z"/>
<path d="M3730 1160 c0 -5 7 -10 15 -10 8 0 15 5 15 10 0 6 -7 10 -15 10 -8 0
-15 -4 -15 -10z"/>
<path d="M2541 1141 c-15 -10 -8 -41 9 -41 15 0 25 29 14 40 -5 5 -15 5 -23 1z"/>
<path d="M3370 1135 c0 -8 7 -15 15 -15 8 0 15 7 15 15 0 8 -7 15 -15 15 -8 0
-15 -7 -15 -15z"/>
<path d="M3010 1115 c0 -8 7 -15 15 -15 8 0 15 7 15 15 0 8 -7 15 -15 15 -8 0
-15 -7 -15 -15z"/>
<path d="M3482 1109 c2 -6 8 -10 13 -10 5 0 11 4 13 10 2 6 -4 11 -13 11 -9 0
-15 -5 -13 -11z"/>
<path d="M2185 1100 c-3 -5 -1 -10 4 -10 6 0 11 5 11 10 0 6 -2 10 -4 10 -3 0
-8 -4 -11 -10z"/>
<path d="M3120 1085 c0 -8 7 -15 15 -15 8 0 15 7 15 15 0 8 -7 15 -15 15 -8 0
-15 -7 -15 -15z"/>
<path d="M2295 1079 c-10 -15 3 -25 16 -12 7 7 7 13 1 17 -6 3 -14 1 -17 -5z"/>
<path d="M3590 1080 c0 -5 7 -10 15 -10 8 0 15 5 15 10 0 6 -7 10 -15 10 -8 0
-15 -4 -15 -10z"/>
<path d="M2760 1065 c0 -8 7 -15 15 -15 8 0 15 7 15 15 0 8 -7 15 -15 15 -8 0
-15 -7 -15 -15z"/>
<path d="M3230 1055 c0 -8 7 -15 15 -15 8 0 15 7 15 15 0 8 -7 15 -15 15 -8 0
-15 -7 -15 -15z"/>
<path d="M3453 1033 c1 -21 8 -42 14 -48 7 -5 36 -73 64 -149 27 -77 54 -147
59 -157 11 -19 104 -34 169 -27 l34 3 -114 140 c-63 77 -138 171 -168 208 -30
37 -56 67 -57 67 -2 0 -2 -17 -1 -37z"/>
<path d="M2400 1046 c0 -9 7 -16 16 -16 9 0 14 5 12 12 -6 18 -28 21 -28 4z"/>
<path d="M2870 1035 c0 -8 7 -15 15 -15 8 0 15 7 15 15 0 8 -7 15 -15 15 -8 0
-15 -7 -15 -15z"/>
<path d="M3342 1029 c2 -6 8 -10 13 -10 5 0 11 4 13 10 2 6 -4 11 -13 11 -9 0
-15 -5 -13 -11z"/>
<path d="M2510 1015 c0 -8 7 -15 15 -15 8 0 15 7 15 15 0 8 -7 15 -15 15 -8 0
-15 -7 -15 -15z"/>
<path d="M2980 1005 c0 -8 7 -15 15 -15 8 0 15 7 15 15 0 8 -7 15 -15 15 -8 0
-15 -7 -15 -15z"/>
<path d="M3092 979 c2 -6 8 -10 13 -10 5 0 11 4 13 10 2 6 -4 11 -13 11 -9 0
-15 -5 -13 -11z"/>
<path d="M2735 959 c-10 -15 3 -25 16 -12 7 7 7 13 1 17 -6 3 -14 1 -17 -5z"/>
<path d="M2424 884 l-35 -76 23 -33 c12 -19 25 -31 28 -29 6 6 27 214 22 214
-2 0 -19 -34 -38 -76z"/>
<path d="M3206 951 c-4 -5 -2 -12 3 -15 5 -4 12 -2 15 3 4 5 2 12 -3 15 -5 4
-12 2 -15 -3z"/>
<path d="M2375 930 c3 -5 8 -10 11 -10 2 0 4 5 4 10 0 6 -5 10 -11 10 -5 0 -7
-4 -4 -10z"/>
<path d="M2846 931 c-4 -5 -2 -12 3 -15 5 -4 12 -2 15 3 4 5 2 12 -3 15 -5 4
-12 2 -15 -3z"/>
<path d="M3315 920 c-3 -5 1 -10 10 -10 9 0 13 5 10 10 -3 6 -8 10 -10 10 -2
0 -7 -4 -10 -10z"/>
<path d="M2485 900 c3 -5 8 -10 11 -10 2 0 4 5 4 10 0 6 -5 10 -11 10 -5 0 -7
-4 -4 -10z"/>
<path d="M2956 901 c-4 -5 -2 -12 3 -15 5 -4 12 -2 15 3 4 5 2 12 -3 15 -5 4
-12 2 -15 -3z"/>
<path d="M2595 870 c3 -5 8 -10 11 -10 2 0 4 5 4 10 0 6 -5 10 -11 10 -5 0 -7
-4 -4 -10z"/>
<path d="M3066 871 c-4 -5 -2 -12 3 -15 5 -4 12 -2 15 3 4 5 2 12 -3 15 -5 4
-12 2 -15 -3z"/>
</g>
</svg>
