<svg
    version="1.0"
    xmlns="http://www.w3.org/2000/svg"
    viewBox="0 0 295.000000 293.000000"
  >
    <g
      transform="translate(0.000000,293.000000) scale(0.100000,-0.100000)"
      fill="currentColor"
      stroke="none"
    >
      <path
        d="M503 2618 l-132 -110 58 -38 c45 -29 105 -93 267 -286 114 -137 287
-343 384 -457 230 -274 216 -254 198 -275 -8 -9 -144 -172 -303 -362 -158
-190 -306 -362 -329 -382 -54 -50 -140 -95 -210 -111 l-57 -13 206 -172 205
-173 0 55 c0 64 27 157 64 220 14 24 101 134 193 243 93 110 223 266 291 346
68 81 127 147 132 147 5 0 64 -66 132 -147 68 -80 198 -236 291 -346 92 -109
179 -219 193 -243 37 -63 64 -156 64 -220 l0 -55 205 173 206 172 -57 13 c-70
16 -156 61 -210 111 -23 20 -171 192 -329 382 -159 190 -295 353 -303 362 -18
21 -32 1 198 275 97 114 270 320 384 457 162 193 222 257 267 286 l58 38 -133
111 c-74 61 -136 111 -139 111 -2 0 -9 -18 -16 -39 -6 -22 -26 -61 -44 -88
-42 -63 -756 -913 -767 -913 -11 0 -725 850 -767 913 -18 27 -38 66 -44 88 -7
21 -15 39 -18 39 -3 -1 -65 -51 -138 -112z"
      />
      <path
        d="M385 2389 c-21 -59 -245 -714 -245 -719 0 -3 64 4 143 16 121 19 574
90 616 97 8 1 -88 124 -229 292 -291 347 -278 333 -285 314z"
      fill="#a61b11" />
      <path
        d="M2285 2093 c-150 -179 -252 -309 -244 -310 47 -8 498 -79 617 -97 78
-12 142 -20 142 -17 0 12 -243 716 -250 724 -3 4 -123 -131 -265 -300z" fill="#a61b11"
      />
      <path
        d="M366 426 c-20 -43 -21 -128 -1 -166 43 -83 165 -118 251 -72 55 29
52 34 -82 149 -69 59 -132 111 -139 115 -9 5 -18 -4 -29 -26z"
      />
      <path
        d="M2417 348 c-75 -62 -134 -117 -133 -122 4 -18 53 -47 92 -56 77 -18
172 29 201 98 18 45 14 138 -9 170 -15 23 -16 23 -151 -90z"
      />
    </g>
</svg>

