<svg version="1.0" xmlns="http://www.w3.org/2000/svg"
 viewBox="0 0 1900.000000 1500.000000">

<g transform="translate(0.000000,1500.000000) scale(0.100000,-0.100000)"
fill="currentColor" stroke="none">
<path d="M7987 14689 c-757 -88 -1454 -665 -1667 -1379 -48 -162 -61 -258 -67
-485 -9 -317 13 -494 88 -719 90 -272 249 -524 470 -745 182 -182 337 -289
635 -439 l211 -106 6 -205 c4 -113 16 -273 27 -356 69 -512 105 -854 93 -865
-4 -4 -105 -45 -223 -90 -328 -125 -479 -191 -790 -347 -318 -158 -579 -302
-900 -493 -333 -198 -529 -335 -795 -556 -162 -135 -575 -546 -721 -718 -295
-347 -618 -815 -765 -1107 -98 -195 -132 -301 -298 -923 -59 -223 -115 -416
-124 -429 -37 -56 -309 -260 -789 -591 -276 -190 -287 -199 -292 -234 -3 -20
-10 -185 -16 -367 -7 -181 -13 -335 -15 -341 -2 -6 -43 -19 -91 -28 -143 -29
-210 -53 -238 -87 -51 -60 -58 -109 -63 -421 l-5 -286 183 -4 c205 -4 216 -7
280 -75 20 -21 75 -91 123 -155 128 -173 136 -177 361 -187 195 -10 207 -14
337 -143 172 -169 272 -213 514 -227 189 -12 229 -31 433 -211 249 -219 462
-316 802 -365 93 -13 280 -24 716 -41 l143 -6 122 -141 c68 -78 137 -157 154
-176 l31 -34 379 -23 c208 -12 471 -27 584 -34 l205 -12 263 126 c145 69 268
126 274 126 6 0 70 -36 144 -80 179 -109 338 -183 459 -217 98 -28 104 -28
375 -28 390 0 537 26 797 139 l121 53 118 -84 c199 -143 307 -197 473 -239
267 -68 510 -38 1032 129 l136 44 48 -60 c34 -42 62 -66 100 -83 110 -51 409
-73 472 -35 62 38 200 222 264 352 53 107 73 129 117 129 19 0 170 -20 336
-44 342 -51 586 -80 796 -96 80 -6 159 -13 176 -15 25 -4 64 14 225 106 418
240 616 365 662 417 31 35 46 93 47 183 l0 87 303 4 c272 5 309 7 367 26 151
49 404 272 491 432 62 116 67 118 270 128 140 7 171 12 209 31 29 15 108 87
220 201 l175 178 300 6 c302 6 398 14 422 38 18 18 46 139 88 373 20 110 38
209 40 221 4 16 -31 62 -141 190 -237 276 -279 348 -309 537 -31 195 -71 271
-314 597 -297 398 -562 704 -669 770 -88 54 -123 125 -203 413 -28 100 -55
186 -59 191 -5 5 -80 0 -178 -13 -94 -11 -179 -21 -190 -21 -16 0 -42 46 -134
233 -176 357 -321 606 -489 842 -259 363 -897 999 -1333 1327 -392 296 -1322
840 -1601 938 -475 166 -1421 377 -2020 450 -378 46 -466 64 -485 99 -24 46
-60 358 -111 966 l-31 370 23 15 c330 218 498 365 655 576 286 385 433 901
383 1352 -56 518 -305 978 -714 1320 -403 338 -948 508 -1438 451z m-356 -617
c181 -87 269 -230 269 -436 0 -120 -26 -220 -87 -339 -39 -75 -64 -109 -143
-187 -128 -129 -251 -192 -428 -219 -127 -20 -260 28 -355 128 -93 97 -127
189 -127 341 0 325 212 605 550 727 55 20 80 23 160 20 82 -3 104 -7 161 -35z
m1042 -4689 c30 -197 90 -984 75 -994 -5 -3 -118 -13 -251 -22 -133 -10 -268
-20 -299 -23 -68 -6 -61 -22 -83 181 -87 804 -86 903 9 946 36 16 69 19 287
19 l246 0 16 -107z m1052 -108 c536 -79 939 -156 1335 -256 678 -170 934 -282
1495 -654 550 -364 1166 -861 1510 -1216 126 -130 196 -218 273 -340 33 -52
131 -203 219 -335 177 -267 266 -419 393 -671 132 -260 216 -457 231 -543 20
-109 17 -566 -5 -786 -25 -260 -44 -316 -142 -426 -31 -34 -78 -97 -106 -138
-64 -97 -161 -296 -188 -385 -45 -150 -32 -143 -296 -155 -231 -10 -278 -19
-413 -80 -152 -68 -332 -94 -910 -130 -229 -14 -329 -24 -340 -33 -250 -208
-480 -410 -651 -571 -121 -113 -155 -136 -203 -136 -58 0 -101 24 -332 184
l-205 143 -618 6 c-339 4 -754 10 -922 13 l-305 6 -187 -181 -187 -181 -79 98
c-94 115 -198 215 -308 293 -73 53 -412 249 -429 249 -4 0 -71 -34 -149 -76
-156 -85 -288 -168 -416 -263 -92 -68 -168 -111 -199 -111 -10 0 -68 34 -128
76 -126 89 -239 157 -365 220 -289 145 -640 248 -853 249 -92 0 -105 -3 -165
-31 -72 -34 -127 -74 -242 -175 -80 -71 -124 -99 -155 -99 -10 0 -54 27 -98
60 -44 33 -102 72 -130 85 -76 37 -221 72 -440 105 l-198 30 -336 333 c-318
314 -403 390 -460 404 -15 4 -81 -14 -190 -50 -209 -71 -349 -107 -413 -107
-41 0 -54 5 -78 28 -16 16 -33 46 -39 68 -18 69 -24 244 -12 344 53 439 380
1600 541 1920 84 166 304 473 535 745 156 183 607 635 807 809 518 450 1020
800 1533 1067 381 198 961 439 1057 439 40 0 59 -81 83 -350 16 -169 37 -355
51 -433 6 -33 3 -40 -28 -70 -19 -18 -80 -52 -135 -75 -149 -64 -402 -235
-380 -258 8 -8 13 -7 207 50 161 48 335 82 480 95 148 14 993 14 1175 1 175
-13 240 -23 389 -60 132 -33 161 -36 172 -18 11 18 -52 67 -158 122 -174 92
-248 152 -248 203 0 40 16 59 72 83 96 41 193 52 533 59 l320 6 -110 56 c-194
100 -204 102 -550 108 l-300 6 -17 130 c-9 72 -27 217 -39 324 -23 191 -23
193 -4 208 28 21 151 12 450 -32z m-5818 -5838 c12 -12 -49 -85 -200 -243
-177 -183 -334 -327 -349 -318 -28 17 46 330 104 442 37 73 95 96 313 126 39
5 124 1 132 -7z m-1462 -564 c23 -22 33 -51 61 -173 26 -117 30 -170 12 -188
-14 -14 -106 -15 -162 -2 -82 18 -117 71 -77 114 24 26 51 87 51 118 1 32 33
101 61 127 27 25 33 26 54 4z m10821 -78 c82 -14 150 -27 151 -29 4 -3 -369
-205 -617 -334 -168 -88 -378 -184 -392 -180 -26 9 230 294 392 436 161 141
207 151 466 107z m-8364 -73 c18 -18 -2 -44 -43 -55 -63 -16 -148 -86 -466
-380 -76 -71 -155 -142 -175 -159 l-38 -30 0 29 c0 38 63 303 101 430 29 92
35 103 61 112 25 9 277 51 388 64 62 8 160 1 172 -11z m5100 -288 c112 -15
176 -34 189 -56 13 -21 -9 -45 -96 -103 -121 -82 -263 -238 -407 -450 -138
-202 -268 -358 -285 -341 -12 12 -8 553 5 625 8 47 19 72 39 93 40 43 146 119
259 188 112 69 117 69 296 44z m-3412 -14 c42 -42 27 -67 -89 -147 -53 -36
-175 -125 -271 -196 -204 -152 -289 -209 -301 -201 -32 19 25 224 109 394 67
135 74 139 307 159 170 15 223 13 245 -9z"/>
<path d="M5425 7422 c-94 -52 -238 -156 -300 -217 -98 -97 -140 -205 -152
-392 -4 -71 -3 -103 5 -103 6 0 32 35 58 78 97 159 128 204 170 246 23 24 60
79 82 122 46 90 76 123 124 133 30 7 33 10 30 40 -2 22 5 45 22 72 40 60 35
62 -39 21z"/>
<path d="M13446 7064 c-69 -22 -155 -110 -184 -186 -70 -186 -50 -471 55 -772
19 -55 78 -191 131 -301 83 -172 96 -207 97 -252 0 -45 3 -52 17 -47 30 9 95
-34 203 -136 120 -112 227 -188 311 -219 219 -82 383 13 440 257 20 83 14 308
-11 422 -40 186 -146 449 -254 634 -79 135 -104 200 -98 250 4 28 2 35 -6 27
-6 -6 -18 -11 -27 -11 -31 0 -131 82 -177 144 -37 50 -44 66 -40 92 5 31 5 31
-21 22 -29 -11 -68 0 -199 56 -79 34 -170 41 -237 20z m373 -254 c92 -46 216
-226 271 -390 26 -81 37 -225 18 -259 -28 -52 -108 -48 -186 9 -91 66 -204
253 -236 390 -29 121 -16 246 26 263 28 11 70 6 107 -13z"/>
<path d="M8593 7009 c-506 -264 -648 -352 -671 -419 -10 -28 -9 -34 13 -56 23
-23 25 -23 66 -9 134 48 589 339 716 458 44 41 51 52 42 68 -15 30 -40 23
-166 -42z"/>
<path d="M8116 6481 c-4 -6 8 -13 26 -16 46 -9 123 -2 123 10 0 13 -141 19
-149 6z"/>
<path d="M10159 6015 c-246 -49 -463 -253 -548 -515 -110 -343 -83 -702 84
-1082 149 -339 429 -651 714 -795 259 -131 579 -133 779 -4 75 49 178 153 220
223 88 147 161 384 169 548 11 217 -87 601 -225 875 -134 268 -387 527 -641
655 -186 93 -387 128 -552 95z m517 -270 c87 -43 208 -168 261 -270 102 -198
127 -417 63 -551 -32 -65 -81 -89 -185 -89 -71 0 -88 4 -148 34 -58 28 -79 46
-133 115 -220 276 -259 630 -83 765 40 31 48 33 104 29 41 -2 80 -13 121 -33z"/>
<path d="M14086 4709 c-15 -12 -40 -50 -56 -86 -40 -87 -121 -166 -295 -283
-77 -52 -169 -119 -205 -149 -142 -116 -536 -280 -907 -376 -194 -51 -291 -61
-409 -46 -52 7 -97 11 -99 9 -2 -2 3 -51 10 -108 31 -234 86 -330 188 -330 27
0 45 7 64 26 23 23 25 30 19 77 -10 81 8 93 256 162 l97 27 137 -141 c141
-145 256 -241 332 -275 41 -18 47 -19 140 -3 181 30 400 113 548 209 38 24
122 91 187 148 136 120 123 75 107 372 -14 258 -24 325 -55 354 -27 25 -34 64
-12 64 8 0 24 -11 36 -24 13 -14 37 -30 53 -37 28 -11 33 -11 49 10 24 30 24
78 -1 177 -28 108 -74 201 -113 225 -39 23 -39 24 -71 -2z m-127 -604 c25
-125 36 -240 27 -298 -21 -140 -193 -254 -573 -384 l-172 -58 -111 110 c-132
131 -193 206 -188 233 2 15 121 79 493 265 270 135 493 242 497 238 3 -3 15
-51 27 -106z"/>
</g>
</svg>
